<?xml version="1.0" encoding="UTF-8"?>
<svg version="1.1" viewBox="0 0 2048 1197" width="1280" height="1280" xmlns="http://www.w3.org/2000/svg">
<path transform="translate(1816,138)" d="m0 0h8l11 2 10 5 10 9 6 9 4 11 2 6 9 5 10 9 5 8 2 7 1 376 1 45 4 82 5 68 6 64 5 44v18l-4 11-6 9-5 6-5 5-1 14-3 9-7 10-11 7-12 4-7 1h-595l-5-5v-27l-4-10-7-11-12-16-6-5-2-1h-18l-15 3-12 6-12 9-9 10-9 17-3 8v24l-2 7-4 3-55 4-830 58-29 2h-24l-10-3-11-7-8-9-5-10-3-14-3-35-8-7-7-9-7-14-2-8-1-31v-18l1-52v-217l-5-74-9-124-7-100-1-14v-21l4-12 8-11 8-7 2-1 1-44 4-13 7-11 5-6 10-7 5-2 13-1h929l8 2 4 5-1 10v13l4 18 4 9 6 9 9 7 11 5 10 3 8 1h23l9-2 6-4 7-11 5-12 1-4v-40l2-4 6-2 33-3 116-8 390-27zm-7 9-345 24-26 2-32 1v1l8 1 442 1-1-6-6-11-9-8-9-4-5-1zm-1531 38-100 1-10 2-10 9-6 10-3 7-1 6v26l1 17-2 2v381l1 36v76l-1 42v142l4 12 6 8 7 6 8 4 4 1 702 1h225l6-1 1-24 5-12 11-17 9-10 15-10 15-6 10-2h25l14 2 19 5 14 18 9 13 6 12 3 11v19l58-1h43l46 1 145 1h282l17-1 9-3 8-6 7-10 3-10v-726l-2-9-6-10-8-7-11-5-5-1h-588l-1 1-2 35-4 11-8 14-9 10-10 5-31 8-30-1-16-4-16-8-8-8-9-13-4-10-2-13-1-25-1-1-103-1zm972 1-13 1-3 1v37l-4 13-8 15 1 2 10-5 8-8 9-16 2-7 1-8v-25zm-1113 84-7 8-5 9-1 4v25l12 170 2 4v-220zm1755 484v173l5-4 7-11 2-6v-20l-6-54-7-78zm-719 146-15 5-11 6-12 10-10 15-7 14-1 19-2 9-1 2-3 1h-941l3 36 4 13 6 9 10 7 7 3 7 1 23-1 904-63 2-1v-26l5-13 9-16 9-11 12-9 14-7 5-2v-1z" fill="#FEFEFE"/>
</svg>
